<mxfile host="app.diagrams.net" modified="2023-11-06T09:31:04.182Z" agent="Mozilla/5.0 (Macintosh; Intel Mac OS X 10_15_7) AppleWebKit/537.36 (KHTML, like Gecko) Chrome/117.0.0.0 Safari/537.36" etag="ejCv6vEfbRqlZbPyvsqK" version="22.0.8" type="github">
  <diagram name="第 1 页" id="TP1V4fHeTRA3vRTPvK3x">
    <mxGraphModel dx="830" dy="509" grid="1" gridSize="10" guides="1" tooltips="1" connect="1" arrows="1" fold="1" page="1" pageScale="1" pageWidth="827" pageHeight="1169" math="0" shadow="0">
      <root>
        <mxCell id="0" />
        <mxCell id="1" parent="0" />
        <mxCell id="4PUE3C8j-RCjqCMSjhHY-39" value="" style="rounded=1;whiteSpace=wrap;html=1;dashed=1;arcSize=1;" vertex="1" parent="1">
          <mxGeometry x="920" y="370" width="520" height="360" as="geometry" />
        </mxCell>
        <mxCell id="4PUE3C8j-RCjqCMSjhHY-58" style="edgeStyle=orthogonalEdgeStyle;rounded=0;orthogonalLoop=1;jettySize=auto;html=1;entryX=0.5;entryY=0;entryDx=0;entryDy=0;" edge="1" parent="1" source="4PUE3C8j-RCjqCMSjhHY-57" target="4PUE3C8j-RCjqCMSjhHY-34">
          <mxGeometry relative="1" as="geometry">
            <Array as="points">
              <mxPoint x="1060" y="340" />
              <mxPoint x="1060" y="340" />
            </Array>
          </mxGeometry>
        </mxCell>
        <mxCell id="4PUE3C8j-RCjqCMSjhHY-57" value="" style="rounded=1;whiteSpace=wrap;html=1;dashed=1;arcSize=4;" vertex="1" parent="1">
          <mxGeometry x="920" y="190" width="520" height="130" as="geometry" />
        </mxCell>
        <mxCell id="4PUE3C8j-RCjqCMSjhHY-5" style="edgeStyle=orthogonalEdgeStyle;rounded=0;orthogonalLoop=1;jettySize=auto;html=1;entryX=0.25;entryY=0;entryDx=0;entryDy=0;" edge="1" parent="1" source="4PUE3C8j-RCjqCMSjhHY-1" target="4PUE3C8j-RCjqCMSjhHY-2">
          <mxGeometry relative="1" as="geometry">
            <Array as="points">
              <mxPoint x="330" y="210" />
              <mxPoint x="330" y="210" />
            </Array>
          </mxGeometry>
        </mxCell>
        <mxCell id="4PUE3C8j-RCjqCMSjhHY-1" value="RPA系统" style="rounded=1;whiteSpace=wrap;html=1;" vertex="1" parent="1">
          <mxGeometry x="280" y="160" width="200" height="40" as="geometry" />
        </mxCell>
        <mxCell id="4PUE3C8j-RCjqCMSjhHY-6" style="edgeStyle=orthogonalEdgeStyle;rounded=0;orthogonalLoop=1;jettySize=auto;html=1;entryX=0.25;entryY=0;entryDx=0;entryDy=0;" edge="1" parent="1" source="4PUE3C8j-RCjqCMSjhHY-2" target="4PUE3C8j-RCjqCMSjhHY-3">
          <mxGeometry relative="1" as="geometry">
            <Array as="points">
              <mxPoint x="330" y="290" />
              <mxPoint x="330" y="290" />
            </Array>
          </mxGeometry>
        </mxCell>
        <mxCell id="4PUE3C8j-RCjqCMSjhHY-10" style="edgeStyle=orthogonalEdgeStyle;rounded=0;orthogonalLoop=1;jettySize=auto;html=1;entryX=0.75;entryY=1;entryDx=0;entryDy=0;" edge="1" parent="1" source="4PUE3C8j-RCjqCMSjhHY-2" target="4PUE3C8j-RCjqCMSjhHY-1">
          <mxGeometry relative="1" as="geometry">
            <Array as="points">
              <mxPoint x="430" y="230" />
              <mxPoint x="430" y="230" />
            </Array>
          </mxGeometry>
        </mxCell>
        <mxCell id="4PUE3C8j-RCjqCMSjhHY-2" value="java、python等编程语言的Shell相关接口" style="rounded=1;whiteSpace=wrap;html=1;" vertex="1" parent="1">
          <mxGeometry x="280" y="240" width="200" height="40" as="geometry" />
        </mxCell>
        <mxCell id="4PUE3C8j-RCjqCMSjhHY-7" style="edgeStyle=orthogonalEdgeStyle;rounded=0;orthogonalLoop=1;jettySize=auto;html=1;entryX=0.25;entryY=0;entryDx=0;entryDy=0;" edge="1" parent="1" source="4PUE3C8j-RCjqCMSjhHY-3" target="4PUE3C8j-RCjqCMSjhHY-4">
          <mxGeometry relative="1" as="geometry">
            <Array as="points">
              <mxPoint x="330" y="370" />
              <mxPoint x="330" y="370" />
            </Array>
          </mxGeometry>
        </mxCell>
        <mxCell id="4PUE3C8j-RCjqCMSjhHY-9" value="" style="edgeStyle=orthogonalEdgeStyle;rounded=0;orthogonalLoop=1;jettySize=auto;html=1;entryX=0.75;entryY=1;entryDx=0;entryDy=0;" edge="1" parent="1" source="4PUE3C8j-RCjqCMSjhHY-3" target="4PUE3C8j-RCjqCMSjhHY-2">
          <mxGeometry relative="1" as="geometry">
            <Array as="points">
              <mxPoint x="430" y="310" />
              <mxPoint x="430" y="310" />
            </Array>
            <mxPoint as="offset" />
          </mxGeometry>
        </mxCell>
        <mxCell id="4PUE3C8j-RCjqCMSjhHY-3" value="Shell" style="rounded=1;whiteSpace=wrap;html=1;" vertex="1" parent="1">
          <mxGeometry x="280" y="320" width="200" height="40" as="geometry" />
        </mxCell>
        <mxCell id="4PUE3C8j-RCjqCMSjhHY-8" style="edgeStyle=orthogonalEdgeStyle;rounded=0;orthogonalLoop=1;jettySize=auto;html=1;entryX=0.75;entryY=1;entryDx=0;entryDy=0;" edge="1" parent="1" source="4PUE3C8j-RCjqCMSjhHY-4" target="4PUE3C8j-RCjqCMSjhHY-3">
          <mxGeometry relative="1" as="geometry">
            <Array as="points">
              <mxPoint x="430" y="390" />
              <mxPoint x="430" y="390" />
            </Array>
          </mxGeometry>
        </mxCell>
        <mxCell id="4PUE3C8j-RCjqCMSjhHY-4" value="文件管理相关应用，如dde-file-manager、mv、rm等" style="rounded=1;whiteSpace=wrap;html=1;" vertex="1" parent="1">
          <mxGeometry x="280" y="400" width="200" height="40" as="geometry" />
        </mxCell>
        <mxCell id="4PUE3C8j-RCjqCMSjhHY-16" style="edgeStyle=orthogonalEdgeStyle;rounded=0;orthogonalLoop=1;jettySize=auto;html=1;entryX=0.25;entryY=0;entryDx=0;entryDy=0;" edge="1" source="4PUE3C8j-RCjqCMSjhHY-17" target="4PUE3C8j-RCjqCMSjhHY-20" parent="1">
          <mxGeometry relative="1" as="geometry">
            <Array as="points">
              <mxPoint x="650" y="210" />
              <mxPoint x="650" y="210" />
            </Array>
          </mxGeometry>
        </mxCell>
        <mxCell id="4PUE3C8j-RCjqCMSjhHY-17" value="RPA系统" style="rounded=1;whiteSpace=wrap;html=1;" vertex="1" parent="1">
          <mxGeometry x="600" y="160" width="200" height="40" as="geometry" />
        </mxCell>
        <mxCell id="4PUE3C8j-RCjqCMSjhHY-18" style="edgeStyle=orthogonalEdgeStyle;rounded=0;orthogonalLoop=1;jettySize=auto;html=1;entryX=0.25;entryY=0;entryDx=0;entryDy=0;" edge="1" source="4PUE3C8j-RCjqCMSjhHY-20" target="4PUE3C8j-RCjqCMSjhHY-23" parent="1">
          <mxGeometry relative="1" as="geometry">
            <Array as="points">
              <mxPoint x="650" y="290" />
              <mxPoint x="650" y="290" />
            </Array>
          </mxGeometry>
        </mxCell>
        <mxCell id="4PUE3C8j-RCjqCMSjhHY-19" style="edgeStyle=orthogonalEdgeStyle;rounded=0;orthogonalLoop=1;jettySize=auto;html=1;entryX=0.75;entryY=1;entryDx=0;entryDy=0;" edge="1" source="4PUE3C8j-RCjqCMSjhHY-20" target="4PUE3C8j-RCjqCMSjhHY-17" parent="1">
          <mxGeometry relative="1" as="geometry">
            <Array as="points">
              <mxPoint x="750" y="230" />
              <mxPoint x="750" y="230" />
            </Array>
          </mxGeometry>
        </mxCell>
        <mxCell id="4PUE3C8j-RCjqCMSjhHY-20" value="" style="rounded=1;whiteSpace=wrap;html=1;" vertex="1" parent="1">
          <mxGeometry x="600" y="240" width="200" height="160" as="geometry" />
        </mxCell>
        <mxCell id="4PUE3C8j-RCjqCMSjhHY-21" style="edgeStyle=orthogonalEdgeStyle;rounded=0;orthogonalLoop=1;jettySize=auto;html=1;entryX=0.25;entryY=0;entryDx=0;entryDy=0;" edge="1" source="4PUE3C8j-RCjqCMSjhHY-23" target="4PUE3C8j-RCjqCMSjhHY-25" parent="1">
          <mxGeometry relative="1" as="geometry">
            <Array as="points">
              <mxPoint x="650" y="510" />
              <mxPoint x="650" y="510" />
            </Array>
          </mxGeometry>
        </mxCell>
        <mxCell id="4PUE3C8j-RCjqCMSjhHY-32" style="edgeStyle=orthogonalEdgeStyle;rounded=0;orthogonalLoop=1;jettySize=auto;html=1;entryX=0.75;entryY=1;entryDx=0;entryDy=0;" edge="1" parent="1" source="4PUE3C8j-RCjqCMSjhHY-23" target="4PUE3C8j-RCjqCMSjhHY-20">
          <mxGeometry relative="1" as="geometry">
            <Array as="points">
              <mxPoint x="750" y="430" />
              <mxPoint x="750" y="430" />
            </Array>
          </mxGeometry>
        </mxCell>
        <mxCell id="4PUE3C8j-RCjqCMSjhHY-23" value="Shell" style="rounded=1;whiteSpace=wrap;html=1;" vertex="1" parent="1">
          <mxGeometry x="600" y="440" width="200" height="40" as="geometry" />
        </mxCell>
        <mxCell id="4PUE3C8j-RCjqCMSjhHY-24" style="edgeStyle=orthogonalEdgeStyle;rounded=0;orthogonalLoop=1;jettySize=auto;html=1;entryX=0.75;entryY=1;entryDx=0;entryDy=0;" edge="1" source="4PUE3C8j-RCjqCMSjhHY-25" target="4PUE3C8j-RCjqCMSjhHY-23" parent="1">
          <mxGeometry relative="1" as="geometry">
            <Array as="points">
              <mxPoint x="750" y="530" />
              <mxPoint x="750" y="530" />
            </Array>
          </mxGeometry>
        </mxCell>
        <mxCell id="4PUE3C8j-RCjqCMSjhHY-25" value="文件管理相关应用，如dde-file-manager、mv、rm等" style="rounded=1;whiteSpace=wrap;html=1;" vertex="1" parent="1">
          <mxGeometry x="600" y="530" width="200" height="40" as="geometry" />
        </mxCell>
        <mxCell id="4PUE3C8j-RCjqCMSjhHY-26" value="通用Shell接口" style="rounded=1;whiteSpace=wrap;html=1;" vertex="1" parent="1">
          <mxGeometry x="600" y="260" width="200" height="30" as="geometry" />
        </mxCell>
        <mxCell id="4PUE3C8j-RCjqCMSjhHY-29" value="信创系统兼容层" style="rounded=1;whiteSpace=wrap;html=1;" vertex="1" parent="1">
          <mxGeometry x="600" y="290" width="200" height="30" as="geometry" />
        </mxCell>
        <mxCell id="4PUE3C8j-RCjqCMSjhHY-30" value="shell异常反馈封装层" style="rounded=1;whiteSpace=wrap;html=1;" vertex="1" parent="1">
          <mxGeometry x="600" y="350" width="200" height="30" as="geometry" />
        </mxCell>
        <mxCell id="4PUE3C8j-RCjqCMSjhHY-31" value="外部应用封装层" style="rounded=1;whiteSpace=wrap;html=1;" vertex="1" parent="1">
          <mxGeometry x="600" y="320" width="200" height="30" as="geometry" />
        </mxCell>
        <mxCell id="4PUE3C8j-RCjqCMSjhHY-33" value="信创体系shell调用SDK" style="text;html=1;strokeColor=none;fillColor=none;align=center;verticalAlign=middle;whiteSpace=wrap;rounded=0;" vertex="1" parent="1">
          <mxGeometry x="630" y="240" width="140" height="20" as="geometry" />
        </mxCell>
        <mxCell id="4PUE3C8j-RCjqCMSjhHY-51" style="edgeStyle=orthogonalEdgeStyle;rounded=0;orthogonalLoop=1;jettySize=auto;html=1;entryX=0.5;entryY=0;entryDx=0;entryDy=0;" edge="1" parent="1" source="4PUE3C8j-RCjqCMSjhHY-34" target="4PUE3C8j-RCjqCMSjhHY-46">
          <mxGeometry relative="1" as="geometry" />
        </mxCell>
        <mxCell id="4PUE3C8j-RCjqCMSjhHY-34" value="通用Shell接口" style="rounded=1;whiteSpace=wrap;html=1;" vertex="1" parent="1">
          <mxGeometry x="960" y="400" width="200" height="40" as="geometry" />
        </mxCell>
        <mxCell id="4PUE3C8j-RCjqCMSjhHY-35" value="用户&lt;br&gt;" style="shape=umlActor;verticalLabelPosition=bottom;verticalAlign=top;html=1;outlineConnect=0;" vertex="1" parent="1">
          <mxGeometry x="1045" y="220" width="30" height="60" as="geometry" />
        </mxCell>
        <mxCell id="4PUE3C8j-RCjqCMSjhHY-45" style="edgeStyle=orthogonalEdgeStyle;rounded=0;orthogonalLoop=1;jettySize=auto;html=1;entryX=0.5;entryY=1;entryDx=0;entryDy=0;exitX=0.771;exitY=-0.03;exitDx=0;exitDy=0;exitPerimeter=0;" edge="1" parent="1" source="4PUE3C8j-RCjqCMSjhHY-41" target="4PUE3C8j-RCjqCMSjhHY-44">
          <mxGeometry relative="1" as="geometry" />
        </mxCell>
        <mxCell id="4PUE3C8j-RCjqCMSjhHY-41" value="Shell" style="rounded=1;whiteSpace=wrap;html=1;" vertex="1" parent="1">
          <mxGeometry x="940" y="830" width="480" height="40" as="geometry" />
        </mxCell>
        <mxCell id="4PUE3C8j-RCjqCMSjhHY-70" style="edgeStyle=orthogonalEdgeStyle;rounded=0;orthogonalLoop=1;jettySize=auto;html=1;entryX=0.75;entryY=1;entryDx=0;entryDy=0;" edge="1" parent="1" source="4PUE3C8j-RCjqCMSjhHY-44" target="4PUE3C8j-RCjqCMSjhHY-57">
          <mxGeometry relative="1" as="geometry" />
        </mxCell>
        <mxCell id="4PUE3C8j-RCjqCMSjhHY-44" value="Shell异常反馈判断模块" style="rounded=1;whiteSpace=wrap;html=1;" vertex="1" parent="1">
          <mxGeometry x="1210" y="620" width="200" height="40" as="geometry" />
        </mxCell>
        <mxCell id="4PUE3C8j-RCjqCMSjhHY-52" style="edgeStyle=orthogonalEdgeStyle;rounded=0;orthogonalLoop=1;jettySize=auto;html=1;" edge="1" parent="1" source="4PUE3C8j-RCjqCMSjhHY-46" target="4PUE3C8j-RCjqCMSjhHY-47">
          <mxGeometry relative="1" as="geometry">
            <Array as="points">
              <mxPoint x="1060" y="550" />
              <mxPoint x="1060" y="550" />
            </Array>
          </mxGeometry>
        </mxCell>
        <mxCell id="4PUE3C8j-RCjqCMSjhHY-46" value="根据系统类型，确定外部应用名称" style="rounded=1;whiteSpace=wrap;html=1;" vertex="1" parent="1">
          <mxGeometry x="960" y="470" width="200" height="40" as="geometry" />
        </mxCell>
        <mxCell id="4PUE3C8j-RCjqCMSjhHY-53" style="edgeStyle=orthogonalEdgeStyle;rounded=0;orthogonalLoop=1;jettySize=auto;html=1;" edge="1" parent="1" source="4PUE3C8j-RCjqCMSjhHY-47" target="4PUE3C8j-RCjqCMSjhHY-48">
          <mxGeometry relative="1" as="geometry" />
        </mxCell>
        <mxCell id="4PUE3C8j-RCjqCMSjhHY-47" value="外部应用系统依赖环境变量封装" style="rounded=1;whiteSpace=wrap;html=1;" vertex="1" parent="1">
          <mxGeometry x="960" y="544.5" width="200" height="40" as="geometry" />
        </mxCell>
        <mxCell id="4PUE3C8j-RCjqCMSjhHY-55" style="edgeStyle=orthogonalEdgeStyle;rounded=0;orthogonalLoop=1;jettySize=auto;html=1;entryX=0.25;entryY=0;entryDx=0;entryDy=0;" edge="1" parent="1" source="4PUE3C8j-RCjqCMSjhHY-48" target="4PUE3C8j-RCjqCMSjhHY-41">
          <mxGeometry relative="1" as="geometry" />
        </mxCell>
        <mxCell id="4PUE3C8j-RCjqCMSjhHY-48" value="Shell命令" style="rounded=1;whiteSpace=wrap;html=1;" vertex="1" parent="1">
          <mxGeometry x="960" y="620" width="200" height="40" as="geometry" />
        </mxCell>
        <mxCell id="4PUE3C8j-RCjqCMSjhHY-64" value="用户&lt;br&gt;" style="shape=umlActor;verticalLabelPosition=bottom;verticalAlign=top;html=1;outlineConnect=0;" vertex="1" parent="1">
          <mxGeometry x="1260" y="220" width="30" height="60" as="geometry" />
        </mxCell>
      </root>
    </mxGraphModel>
  </diagram>
</mxfile>
